<svg width="115" height="60" viewBox="0 0 115 60" fill="none" xmlns="http://www.w3.org/2000/svg">
<path d="M8.0385 51.7365C8.0385 51.7616 8.03012 51.7784 8.02174 51.8036L6.74782 54.7118C6.58858 55.0805 6.42096 55.2482 6.23658 55.3236V57.6703C6.23658 57.7625 6.16953 57.8379 6.07733 57.8379H5.23923C5.14704 57.8379 5.07999 57.7625 5.07999 57.6703V55.3236C4.89561 55.2482 4.72798 55.0805 4.56875 54.7118L3.30321 51.8036C3.29482 51.7784 3.28644 51.7533 3.28644 51.7365C3.28644 51.6695 3.33673 51.6108 3.42054 51.6108H4.35084C4.42627 51.6108 4.48493 51.6778 4.51008 51.7449L5.5158 54.2424C5.57447 54.3849 5.62476 54.4101 5.65828 54.4101C5.70019 54.4101 5.75047 54.3849 5.80914 54.2424L6.81487 51.7449C6.84001 51.6778 6.89868 51.6108 6.97411 51.6108H7.89602C7.97984 51.6108 8.0385 51.6695 8.0385 51.7365Z" fill="#E42E21"/>
<path d="M11.8482 55.8181C11.8482 57.0166 11.1609 57.905 9.84508 57.905C8.52925 57.905 7.84201 57.0166 7.84201 55.8181V55.1392C7.84201 53.9407 8.52925 53.0523 9.84508 53.0523C11.1609 53.0523 11.8482 53.9407 11.8482 55.1392V55.8181ZM10.7419 55.8181V55.1392C10.7419 54.452 10.4318 54.0078 9.84508 54.0078C9.2584 54.0078 8.94831 54.452 8.94831 55.1392V55.8181C8.94831 56.5053 9.2584 56.9495 9.84508 56.9495C10.4318 56.9495 10.7419 56.5053 10.7419 55.8181Z" fill="#E42E21"/>
<path d="M16.6691 57.6703C16.6691 57.7625 16.5937 57.8379 16.5015 57.8379H15.7304C15.6382 57.8379 15.5628 57.7625 15.5628 57.6703V57.4775C15.127 57.7625 14.7834 57.8966 14.247 57.8966C13.8279 57.8966 13.4591 57.7876 13.2161 57.5446C12.906 57.2345 12.797 56.7149 12.797 56.0192V53.287C12.797 53.1948 12.8725 53.111 12.9647 53.111H13.7357C13.8279 53.111 13.9033 53.1948 13.9033 53.287V56.0192C13.9033 56.4383 13.9369 56.6813 14.0961 56.8238C14.2134 56.9244 14.3559 56.9747 14.6157 56.9747C14.9258 56.9747 15.3281 56.7651 15.5628 56.6394V53.287C15.5628 53.1948 15.6382 53.111 15.7304 53.111H16.5015C16.5937 53.111 16.6691 53.1948 16.6691 53.287V57.6703Z" fill="#E42E21"/>
<path d="M20.1874 53.8234C20.1874 53.9156 20.112 53.991 20.0198 53.991C19.5672 53.991 19.2152 54.1083 18.8632 54.2927V57.6619C18.8632 57.7541 18.7878 57.8379 18.6956 57.8379H17.9245C17.8324 57.8379 17.7569 57.7541 17.7569 57.6619V53.2786C17.7569 53.1864 17.8324 53.111 17.9245 53.111H18.6537C18.7459 53.111 18.8213 53.1864 18.8213 53.2786V53.4546C19.232 53.1361 19.6846 53.0523 20.0198 53.0523C20.112 53.0523 20.1874 53.1278 20.1874 53.2199V53.8234Z" fill="#E42E21"/>
<path d="M26.7917 57.5781C26.7917 57.6954 26.7163 57.7373 26.6073 57.7709C26.4816 57.8044 25.9285 57.905 25.2831 57.905C24.2774 57.905 22.9113 57.4105 22.9113 55.3404V54.1083C22.9113 52.0047 24.2774 51.5437 25.2831 51.5437C25.9285 51.5437 26.4816 51.6443 26.6073 51.6778C26.7163 51.7114 26.7917 51.7533 26.7917 51.8706V52.4321C26.7917 52.5327 26.7498 52.6081 26.6241 52.6081C26.6241 52.6081 26.6157 52.6081 26.6073 52.6081C26.314 52.583 25.7441 52.5411 25.2999 52.5411C24.5959 52.5411 24.0846 52.9182 24.0846 54.1083V55.3404C24.0846 56.5053 24.5959 56.9076 25.2999 56.9076C25.7441 56.9076 26.314 56.8657 26.6073 56.8406C26.6157 56.8406 26.6241 56.8406 26.6241 56.8406C26.7498 56.8406 26.7917 56.916 26.7917 57.0166V57.5781Z" fill="#E42E21"/>
<path d="M31.5813 55.8181C31.5813 57.0166 30.894 57.905 29.5782 57.905C28.2624 57.905 27.5751 57.0166 27.5751 55.8181V55.1392C27.5751 53.9407 28.2624 53.0523 29.5782 53.0523C30.894 53.0523 31.5813 53.9407 31.5813 55.1392V55.8181ZM30.475 55.8181V55.1392C30.475 54.452 30.1649 54.0078 29.5782 54.0078C28.9915 54.0078 28.6814 54.452 28.6814 55.1392V55.8181C28.6814 56.5053 28.9915 56.9495 29.5782 56.9495C30.1649 56.9495 30.475 56.5053 30.475 55.8181Z" fill="#E42E21"/>
<path d="M38.5478 57.6619C38.5478 57.7541 38.4723 57.8379 38.3802 57.8379H37.6091C37.5169 57.8379 37.4415 57.7541 37.4415 57.6619V54.8124C37.4415 54.167 37.3074 53.9994 36.838 53.9994C36.6788 53.9994 36.3603 54.0497 36.0586 54.2089C36.0837 54.3933 36.0921 54.6028 36.0921 54.8124V57.6619C36.0921 57.7541 36.0167 57.8379 35.9245 57.8379H35.1535C35.0613 57.8379 34.9858 57.7541 34.9858 57.6619V54.8124C34.9858 54.167 34.8769 53.9994 34.4075 53.9994C34.2315 53.9994 33.9801 54.0916 33.6365 54.276V57.6619C33.6365 57.7541 33.561 57.8379 33.4689 57.8379H32.6978C32.6056 57.8379 32.5302 57.7541 32.5302 57.6619V53.2786C32.5302 53.1864 32.6056 53.111 32.6978 53.111H33.427C33.5191 53.111 33.5946 53.1864 33.5946 53.2786V53.4546C33.9466 53.2283 34.2986 53.0523 34.7931 53.0523C35.2708 53.0523 35.5809 53.1948 35.7736 53.4295C36.2011 53.1948 36.5782 53.0523 37.1565 53.0523C38.2963 53.0523 38.5478 53.8318 38.5478 54.8124V57.6619Z" fill="#E42E21"/>
<path d="M43.5484 55.8013C43.5484 57.1088 42.8947 57.905 41.5453 57.905C41.3442 57.905 41.0508 57.8882 40.7407 57.8463V59.3297C40.7407 59.4219 40.6653 59.4974 40.5731 59.4974H39.8021C39.7099 59.4974 39.6344 59.4219 39.6344 59.3297V53.4965C39.6344 53.3708 39.668 53.3205 39.8607 53.2702C40.3803 53.1361 41.0089 53.0523 41.5453 53.0523C42.8947 53.0523 43.5484 53.8485 43.5484 55.156V55.8013ZM42.4421 55.8013V55.156C42.4421 54.4687 42.2661 53.9575 41.5453 53.9575C41.2436 53.9575 40.9 53.9826 40.7407 54.0161V56.9411C40.9754 56.9747 41.3442 56.9998 41.5453 56.9998C42.2661 56.9998 42.4421 56.4886 42.4421 55.8013Z" fill="#E42E21"/>
<path d="M47.9748 57.6703C47.9748 57.7625 47.8994 57.8379 47.8072 57.8379H47.0948C47.0026 57.8379 46.9272 57.7625 46.9272 57.6703V57.5362C46.5417 57.7709 46.1478 57.905 45.7455 57.905C45.0498 57.905 44.2955 57.6368 44.2955 56.5053V56.4718C44.2955 55.5164 44.8822 55.0219 46.3405 55.0219H46.8685V54.6531C46.8685 54.1083 46.6255 53.9742 46.131 53.9742C45.5946 53.9742 45.0415 54.0078 44.7649 54.0413C44.7481 54.0413 44.7314 54.0413 44.723 54.0413C44.6392 54.0413 44.5721 54.0162 44.5721 53.8988V53.3624C44.5721 53.2702 44.6224 53.2116 44.7314 53.1864C45.0666 53.1194 45.5527 53.0523 46.131 53.0523C47.3211 53.0523 47.9748 53.5803 47.9748 54.6531V57.6703ZM46.8685 56.7903V55.7594H46.3405C45.5778 55.7594 45.4102 56.0025 45.4102 56.4718V56.5053C45.4102 56.916 45.5946 57.025 46.0137 57.025C46.3154 57.025 46.6255 56.9244 46.8685 56.7903Z" fill="#E42E21"/>
<path d="M52.9352 57.6619C52.9352 57.7541 52.8597 57.8379 52.7676 57.8379H51.9965C51.9043 57.8379 51.8289 57.7541 51.8289 57.6619V54.9297C51.8289 54.2005 51.7618 53.991 51.1165 53.991C50.8315 53.991 50.5214 54.1083 50.1694 54.2927V57.6619C50.1694 57.7541 50.094 57.8379 50.0018 57.8379H49.2307C49.1386 57.8379 49.0631 57.7541 49.0631 57.6619V53.2786C49.0631 53.1864 49.1386 53.111 49.2307 53.111H49.9599C50.0521 53.111 50.1275 53.1864 50.1275 53.2786V53.4546C50.6136 53.1445 50.9321 53.0523 51.4852 53.0523C52.6921 53.0523 52.9352 53.8653 52.9352 54.9297V57.6619Z" fill="#E42E21"/>
<path d="M57.7493 53.2535C57.7493 53.2702 57.7493 53.287 57.7409 53.3038L56.3413 58.1983C56.0815 59.1118 55.7714 59.5141 54.6316 59.5141C54.355 59.5141 53.9359 59.4638 53.7432 59.4052C53.651 59.38 53.5672 59.3465 53.5672 59.2627V58.7263C53.5672 58.6341 53.6426 58.5754 53.7348 58.5754C53.7432 58.5754 53.7432 58.5754 53.7515 58.5754C53.9862 58.5838 54.4639 58.6257 54.6986 58.6257C55.059 58.6257 55.2434 58.5252 55.3607 58.0893L55.4277 57.8379H55.302C55.059 57.8379 54.7573 57.7792 54.5729 57.1423L53.475 53.3038C53.4666 53.2786 53.4666 53.2619 53.4666 53.2451C53.4666 53.1613 53.5169 53.111 53.6258 53.111H54.4723C54.5477 53.111 54.6148 53.1864 54.6316 53.2619L55.478 56.6729C55.5116 56.8154 55.5451 56.8573 55.5954 56.8573H55.6038C55.6205 56.8573 55.6373 56.8573 55.6457 56.8573C55.6708 56.8573 55.6708 56.8573 55.6708 56.8573L56.576 53.2535C56.5927 53.178 56.6598 53.111 56.7436 53.111H57.5984C57.6823 53.111 57.7493 53.178 57.7493 53.2535Z" fill="#E42E21"/>
<path d="M63.1934 52.055C63.1934 52.1556 63.1263 52.1975 63.0677 52.1975H62.6905C62.2882 52.1975 62.196 52.2897 62.196 52.7003V53.111H63.0006C63.0928 53.111 63.1682 53.1864 63.1682 53.2786V53.7815C63.1682 53.8737 63.0928 53.9407 63.0006 53.9407H62.196V57.6619C62.196 57.7541 62.1206 57.8379 62.0284 57.8379H61.2657C61.1735 57.8379 61.0897 57.7541 61.0897 57.6619V53.9407L60.3438 53.8234C60.2516 53.8066 60.1762 53.7563 60.1762 53.6641V53.2786C60.1762 53.1864 60.2516 53.111 60.3438 53.111H61.0897V52.7003C61.0897 51.6192 61.668 51.3594 62.5397 51.3594C62.7408 51.3594 62.8833 51.3929 63.0425 51.4264C63.1096 51.4432 63.1934 51.4851 63.1934 51.5605V52.055Z" fill="#E42E21"/>
<path d="M67.5527 55.8181C67.5527 57.0166 66.8655 57.905 65.5496 57.905C64.2338 57.905 63.5466 57.0166 63.5466 55.8181V55.1392C63.5466 53.9407 64.2338 53.0523 65.5496 53.0523C66.8655 53.0523 67.5527 53.9407 67.5527 55.1392V55.8181ZM66.4464 55.8181V55.1392C66.4464 54.452 66.1363 54.0078 65.5496 54.0078C64.963 54.0078 64.6529 54.452 64.6529 55.1392V55.8181C64.6529 56.5053 64.963 56.9495 65.5496 56.9495C66.1363 56.9495 66.4464 56.5053 66.4464 55.8181Z" fill="#E42E21"/>
<path d="M70.9321 53.8234C70.9321 53.9156 70.8567 53.991 70.7645 53.991C70.3119 53.991 69.9599 54.1083 69.6079 54.2927V57.6619C69.6079 57.7541 69.5325 57.8379 69.4403 57.8379H68.6692C68.577 57.8379 68.5016 57.7541 68.5016 57.6619V53.2786C68.5016 53.1864 68.577 53.111 68.6692 53.111H69.3984C69.4906 53.111 69.566 53.1864 69.566 53.2786V53.4546C69.9767 53.1361 70.4293 53.0523 70.7645 53.0523C70.8567 53.0523 70.9321 53.1278 70.9321 53.2199V53.8234Z" fill="#E42E21"/>
<path d="M74.9885 57.6703C74.9885 57.7625 74.9131 57.8379 74.8209 57.8379H73.9912C73.899 57.8379 73.8236 57.7625 73.8236 57.6703V51.77C73.8236 51.6778 73.899 51.6108 73.9912 51.6108H74.8209C74.9131 51.6108 74.9885 51.6778 74.9885 51.77V57.6703Z" fill="#E42E21"/>
<path d="M80.0345 57.6619C80.0345 57.7541 79.959 57.8379 79.8668 57.8379H79.0958C79.0036 57.8379 78.9282 57.7541 78.9282 57.6619V54.9297C78.9282 54.2005 78.8611 53.991 78.2158 53.991C77.9308 53.991 77.6207 54.1083 77.2687 54.2927V57.6619C77.2687 57.7541 77.1933 57.8379 77.1011 57.8379H76.33C76.2378 57.8379 76.1624 57.7541 76.1624 57.6619V53.2786C76.1624 53.1864 76.2378 53.111 76.33 53.111H77.0592C77.1514 53.111 77.2268 53.1864 77.2268 53.2786V53.4546C77.7129 53.1445 78.0314 53.0523 78.5845 53.0523C79.7914 53.0523 80.0345 53.8653 80.0345 54.9297V57.6619Z" fill="#E42E21"/>
<path d="M84.9943 57.6619C84.9943 57.7541 84.9189 57.8379 84.8267 57.8379H84.0557C83.9635 57.8379 83.8881 57.7541 83.8881 57.6619V54.9297C83.8881 54.2005 83.821 53.991 83.1757 53.991C82.8907 53.991 82.5806 54.1083 82.2286 54.2927V57.6619C82.2286 57.7541 82.1532 57.8379 82.061 57.8379H81.2899C81.1977 57.8379 81.1223 57.7541 81.1223 57.6619V53.2786C81.1223 53.1864 81.1977 53.111 81.2899 53.111H82.0191C82.1113 53.111 82.1867 53.1864 82.1867 53.2786V53.4546C82.6728 53.1445 82.9913 53.0523 83.5444 53.0523C84.7513 53.0523 84.9943 53.8653 84.9943 54.9297V57.6619Z" fill="#E42E21"/>
<path d="M89.9458 55.8181C89.9458 57.0166 89.2586 57.905 87.9428 57.905C86.627 57.905 85.9397 57.0166 85.9397 55.8181V55.1392C85.9397 53.9407 86.627 53.0523 87.9428 53.0523C89.2586 53.0523 89.9458 53.9407 89.9458 55.1392V55.8181ZM88.8396 55.8181V55.1392C88.8396 54.452 88.5295 54.0078 87.9428 54.0078C87.3561 54.0078 87.046 54.452 87.046 55.1392V55.8181C87.046 56.5053 87.3561 56.9495 87.9428 56.9495C88.5295 56.9495 88.8396 56.5053 88.8396 55.8181Z" fill="#E42E21"/>
<path d="M94.554 53.2451C94.554 53.2619 94.554 53.287 94.5456 53.3038L93.4896 57.1171C93.322 57.7373 92.8694 57.905 92.442 57.905C92.0145 57.905 91.5703 57.7373 91.4027 57.1171L90.3467 53.3038C90.3383 53.287 90.3383 53.2619 90.3383 53.2451C90.3383 53.1697 90.397 53.111 90.4724 53.111H91.3105C91.386 53.111 91.453 53.1697 91.4781 53.2786L92.2827 56.7903C92.3163 56.9495 92.3749 56.9998 92.442 56.9998C92.509 56.9998 92.5677 56.9495 92.6012 56.7903L93.4058 53.2786C93.4309 53.1697 93.5064 53.111 93.5818 53.111H94.4199C94.4953 53.111 94.554 53.1697 94.554 53.2451Z" fill="#E42E21"/>
<path d="M98.6131 57.6703C98.6131 57.7625 98.5377 57.8379 98.4455 57.8379H97.7331C97.6409 57.8379 97.5655 57.7625 97.5655 57.6703V57.5362C97.1799 57.7709 96.786 57.905 96.3838 57.905C95.6881 57.905 94.9338 57.6368 94.9338 56.5053V56.4718C94.9338 55.5164 95.5205 55.0219 96.9788 55.0219H97.5068V54.6531C97.5068 54.1083 97.2638 53.9742 96.7693 53.9742C96.2329 53.9742 95.6797 54.0078 95.4032 54.0413C95.3864 54.0413 95.3696 54.0413 95.3613 54.0413C95.2774 54.0413 95.2104 54.0162 95.2104 53.8988V53.3624C95.2104 53.2702 95.2607 53.2116 95.3696 53.1864C95.7049 53.1194 96.191 53.0523 96.7693 53.0523C97.9594 53.0523 98.6131 53.5803 98.6131 54.6531V57.6703ZM97.5068 56.7903V55.7594H96.9788C96.2161 55.7594 96.0485 56.0025 96.0485 56.4718V56.5053C96.0485 56.916 96.2329 57.025 96.6519 57.025C96.9537 57.025 97.2638 56.9244 97.5068 56.7903Z" fill="#E42E21"/>
<path d="M102.104 57.6954C102.104 57.7792 102.054 57.8295 101.945 57.8463C101.744 57.8798 101.559 57.905 101.375 57.905C100.428 57.905 100.042 57.6954 100.042 56.5724V53.9407L99.2545 53.8234C99.1623 53.8066 99.0869 53.748 99.0869 53.6558V53.2786C99.0869 53.1864 99.1623 53.111 99.2545 53.111H100.042V52.4237C100.042 52.3316 100.118 52.2729 100.21 52.2561L100.989 52.122C100.998 52.122 101.015 52.122 101.023 52.122C101.098 52.122 101.157 52.1639 101.157 52.2477V53.111H101.911C102.004 53.111 102.079 53.1864 102.079 53.2786V53.7731C102.079 53.8653 102.004 53.9407 101.911 53.9407H101.157V56.5724C101.157 56.9914 101.182 57.0417 101.484 57.0417H101.928C102.037 57.0417 102.104 57.0836 102.104 57.1674V57.6954Z" fill="#E42E21"/>
<path d="M104.017 52.3148C104.017 52.407 103.942 52.4824 103.85 52.4824H103.037C102.944 52.4824 102.861 52.407 102.861 52.3148V51.5773C102.861 51.4851 102.944 51.4096 103.037 51.4096H103.85C103.942 51.4096 104.017 51.4851 104.017 51.5773V52.3148ZM103.992 57.6619C103.992 57.7541 103.917 57.8379 103.824 57.8379H103.053C102.961 57.8379 102.886 57.7541 102.886 57.6619V53.2786C102.886 53.1864 102.961 53.111 103.053 53.111H103.824C103.917 53.111 103.992 53.1864 103.992 53.2786V57.6619Z" fill="#E42E21"/>
<path d="M108.967 55.8181C108.967 57.0166 108.28 57.905 106.964 57.905C105.648 57.905 104.961 57.0166 104.961 55.8181V55.1392C104.961 53.9407 105.648 53.0523 106.964 53.0523C108.28 53.0523 108.967 53.9407 108.967 55.1392V55.8181ZM107.861 55.8181V55.1392C107.861 54.452 107.551 54.0078 106.964 54.0078C106.377 54.0078 106.067 54.452 106.067 55.1392V55.8181C106.067 56.5053 106.377 56.9495 106.964 56.9495C107.551 56.9495 107.861 56.5053 107.861 55.8181Z" fill="#E42E21"/>
<path d="M113.788 57.6619C113.788 57.7541 113.712 57.8379 113.62 57.8379H112.849C112.757 57.8379 112.682 57.7541 112.682 57.6619V54.9297C112.682 54.2005 112.615 53.991 111.969 53.991C111.684 53.991 111.374 54.1083 111.022 54.2927V57.6619C111.022 57.7541 110.947 57.8379 110.854 57.8379H110.083C109.991 57.8379 109.916 57.7541 109.916 57.6619V53.2786C109.916 53.1864 109.991 53.111 110.083 53.111H110.813C110.905 53.111 110.98 53.1864 110.98 53.2786V53.4546C111.466 53.1445 111.785 53.0523 112.338 53.0523C113.545 53.0523 113.788 53.8653 113.788 54.9297V57.6619Z" fill="#E42E21"/>
<path d="M18.5266 20.8133L11.5322 32.2135C10.649 33.655 9.88763 34.3859 9.09581 34.6803L7.49186 43.8066C7.43095 44.172 7.09595 44.4664 6.74064 44.4664H3.45153C3.15714 44.4664 2.95411 44.2329 2.95411 43.9385V43.8066L4.56821 34.6803C3.90835 34.3859 3.35002 33.6652 2.99471 32.2135L0.0304547 20.8133C0.0304547 20.7524 0 20.7118 0 20.6508C0 20.326 0.263941 20.0621 0.619246 20.0621H4.07078C4.36518 20.0621 4.56821 20.194 4.65957 20.5899L6.89292 30.376C7.02489 30.9344 7.1264 30.9648 7.31928 30.9648C7.64413 30.9648 7.71519 30.9344 8.04004 30.376L13.6945 20.5899C13.928 20.194 14.2224 20.0621 14.5167 20.0621H18.1612C18.4556 20.0621 18.618 20.2245 18.618 20.4884C18.618 20.5899 18.5875 20.6813 18.5165 20.8133H18.5266Z" fill="#1A152A"/>
<path d="M29.1248 33.8885L28.6376 36.5482C27.6224 41.9692 24.5363 44.7304 19.3793 44.7304C14.9127 44.7304 12.8113 41.5732 12.8113 38.1319C12.8113 37.604 12.8417 37.0761 12.9432 36.5584L13.4407 33.8987C14.4254 28.5082 17.5825 25.7165 22.7395 25.7165C27.2367 25.7165 29.3076 28.7417 29.3076 32.183C29.3076 32.7414 29.2365 33.3302 29.1452 33.8885H29.1248ZM22.0695 29.4523C20.0696 29.4523 18.354 30.6298 17.7652 33.8885L17.2678 36.5482C17.1663 37.0761 17.1358 37.5634 17.1358 37.9897C17.1358 39.9287 18.0901 40.9743 20.029 40.9743C22.3233 40.9743 23.7445 39.5937 24.3029 36.5381L24.7901 33.8783C24.8916 33.3505 24.9221 32.8632 24.9221 32.4368C24.9221 30.4979 23.9983 29.4523 22.0695 29.4523Z" fill="#1A152A"/>
<path d="M47.3875 26.6301L44.3624 43.8066C44.2913 44.172 43.9665 44.4664 43.6111 44.4664H40.789C40.4642 44.4664 40.2307 44.2025 40.2307 43.8776V43.8167L40.3322 43.1264C38.7181 44.0502 36.9213 44.771 35.0737 44.771C32.5155 44.771 30.1096 43.4208 30.1096 39.7764C30.1096 39.0252 30.1705 38.2029 30.343 37.3502L32.2109 26.6403C32.282 26.2748 32.6373 25.95 33.0028 25.95H36.0279C36.3934 25.95 36.5558 26.1834 36.5558 26.5083V26.6403L34.6879 37.3502C34.5559 38.1724 34.4544 38.7917 34.4544 39.3196C34.4544 40.7002 34.9519 41.025 36.4543 41.025C37.9567 41.025 39.8652 40.2738 40.7281 39.8475L43.063 26.6403C43.134 26.2748 43.4589 25.95 43.8142 25.95H46.8393C47.2048 25.95 47.3977 26.2139 47.3977 26.5083V26.6403L47.3875 26.6301Z" fill="#1A152A"/>
<path d="M59.3156 40.7103C58.3208 40.7713 57.2142 40.822 56.26 40.822C53.9657 40.822 52.3821 39.9388 52.3821 36.8527C52.3821 36.2335 52.443 35.5026 52.575 34.6803L53.3973 29.8482C54.1485 25.3815 56.4833 23.7065 59.2446 23.7065C60.9805 23.7065 63.224 23.8689 64.3305 23.9704H64.3914C64.8482 23.9704 65.1122 23.676 65.1832 23.2801L65.5791 21.0772V20.9148C65.5791 20.5899 65.3457 20.4174 64.9903 20.326C64.5335 20.194 62.3916 19.7981 59.8638 19.7981C55.925 19.7981 50.301 21.0467 48.7986 29.8482L47.9763 34.6803C47.8443 35.533 47.7428 36.3553 47.7428 37.0761C47.7428 42.8523 52.0166 44.7304 55.4986 44.7304C58.0264 44.7304 60.2293 44.3344 60.7572 44.2025C60.8891 44.1619 61.0008 44.1213 61.1125 44.0705C60.2394 43.1366 59.6405 41.9793 59.3156 40.7103Z" fill="#1A152A"/>
<path d="M72.8274 31.0257C72.9695 31.4217 73.0609 31.8886 73.0609 32.4368C73.0609 32.8632 73.0304 33.3606 72.9289 33.8783L72.4416 36.538C71.8833 39.5937 70.4722 40.9743 68.1678 40.9743C66.2289 40.9743 65.2746 39.9185 65.2746 37.9897C65.2746 37.5634 65.3051 37.0659 65.4066 36.5482L65.904 33.8885C66.4928 30.6704 68.1678 29.4827 70.1474 29.4523C71.4163 28.163 72.4721 27.0463 73.3045 26.0616C72.5837 25.8383 71.7818 25.7063 70.8681 25.7063C65.7111 25.7063 62.5641 28.498 61.5794 33.8885L61.082 36.5482C60.9805 37.0761 60.95 37.604 60.95 38.1217C60.95 41.5732 63.0514 44.7202 67.5181 44.7202C72.6751 44.7202 75.7612 41.959 76.7763 36.538L77.2636 33.8783C77.3651 33.32 77.426 32.7312 77.426 32.1729C77.426 30.6197 76.9997 29.1579 76.1368 28.0209C75.1724 28.7924 74.0862 29.7974 72.8274 31.0257Z" fill="#1A152A"/>
<path d="M70.1676 29.4522L70.8376 28.7924C70.6245 29.0056 70.391 29.2289 70.1676 29.4522Z" fill="#1A152A"/>
<path d="M114.083 32.0104C104.663 22.5898 104.673 22.2243 114.114 12.7935C114.144 12.7631 114.165 12.7123 114.165 12.6717C114.165 12.6311 114.144 12.5905 114.114 12.5499C114.053 12.4788 113.941 12.4788 113.88 12.5499C109.231 17.1993 106.693 19.6154 104.257 19.6154C102.582 19.6154 100.866 18.4784 98.4601 16.2654C92.3996 9.84956 93.4655 8.4994 101.668 0.296933C101.698 0.266479 101.719 0.225872 101.719 0.175115C101.719 0.124357 101.698 0.093902 101.668 0.0532957C101.607 -0.0177653 101.495 -0.0177653 101.434 0.0532957C96.7952 4.70271 94.2573 7.11879 91.8108 7.11879C89.3643 7.11879 86.8365 4.69256 82.1871 0.0532957C82.1262 -0.0177653 82.0145 -0.0177653 81.9536 0.0532957C81.9232 0.0837505 81.9029 0.124357 81.9029 0.175115C81.9029 0.225872 81.9232 0.266479 81.9536 0.296933C86.6031 4.94635 89.0191 7.47409 89.0191 9.92062C89.0191 11.5753 87.8923 13.2808 85.7199 15.6664C82.9688 18.2652 81.0907 19.6154 79.2736 19.6154C76.8372 19.6154 74.2994 17.1891 69.6499 12.5499C69.589 12.4788 69.4774 12.4788 69.4063 12.5499C69.3758 12.5803 69.3555 12.6311 69.3555 12.6717C69.3555 12.7123 69.3758 12.7631 69.4063 12.7935C74.0557 17.4429 76.4718 19.9808 76.4718 22.4172C76.4718 24.8536 74.0456 27.3915 69.4063 32.0409C69.3758 32.0714 69.3555 32.1221 69.3555 32.1627C69.3555 32.2033 69.3758 32.2439 69.4063 32.2845C69.4774 32.3454 69.5789 32.3454 69.6499 32.2845C74.2994 27.6351 76.8372 25.219 79.2736 25.219C81.71 25.219 84.2479 27.6453 88.8973 32.2845C88.9278 32.315 88.9684 32.3353 89.0191 32.3353C89.1105 32.3353 89.1917 32.2642 89.1917 32.1627C89.1917 32.1018 89.1612 32.051 89.1105 32.0206C84.4814 27.3915 82.0653 24.8536 82.0653 22.4274C82.0653 20.7726 83.1921 19.0672 85.3646 16.6816C88.1156 14.0828 89.9937 12.7326 91.8108 12.7326C93.4757 12.7326 95.2014 13.8696 97.6074 16.0725C103.668 22.4883 102.602 23.8384 94.3995 32.0409C94.369 32.0714 94.3487 32.1221 94.3487 32.1627C94.3487 32.2033 94.369 32.2439 94.3995 32.2845C94.4299 32.315 94.4705 32.3353 94.5213 32.3353C94.572 32.3353 94.6126 32.315 94.6431 32.2845C99.2925 27.6351 101.82 25.219 104.267 25.219C106.713 25.219 109.241 27.6453 113.89 32.2845C113.921 32.315 113.962 32.3353 114.012 32.3353C114.124 32.3353 114.185 32.2642 114.185 32.1627C114.185 32.1018 114.154 32.051 114.104 32.0206L114.083 32.0104Z" fill="#E42E21"/>
</svg>
