<svg width="45" height="32" viewBox="0 0 45 32" fill="none" xmlns="http://www.w3.org/2000/svg">
<path d="M44.06 31.5325C34.78 22.2525 34.79 21.8925 44.09 12.6025C44.12 12.5725 44.14 12.5225 44.14 12.4825C44.14 12.4425 44.12 12.4025 44.09 12.3625C44.03 12.2925 43.92 12.2925 43.86 12.3625C39.28 16.9425 36.78 19.3225 34.38 19.3225C32.73 19.3225 31.04 18.2025 28.67 16.0225C22.7 9.7025 23.75 8.3725 31.83 0.2925C31.86 0.2625 31.88 0.2225 31.88 0.1725C31.88 0.1225 31.86 0.0925 31.83 0.0525C31.77 -0.0175 31.66 -0.0175 31.6 0.0525C27.03 4.6325 24.53 7.0125 22.12 7.0125C19.71 7.0125 17.22 4.6225 12.64 0.0525C12.58 -0.0175 12.47 -0.0175 12.41 0.0525C12.38 0.0825 12.36 0.1225 12.36 0.1725C12.36 0.2225 12.38 0.2625 12.41 0.2925C16.99 4.8725 19.37 7.3625 19.37 9.7725C19.37 11.4025 18.26 13.0825 16.12 15.4325C13.41 17.9925 11.56 19.3225 9.77 19.3225C7.37 19.3225 4.87 16.9325 0.290001 12.3625C0.230001 12.2925 0.120003 12.2925 0.0500031 12.3625C0.0200031 12.3925 0 12.4425 0 12.4825C0 12.5225 0.0200031 12.5725 0.0500031 12.6025C4.63 17.1825 7.01 19.6825 7.01 22.0825C7.01 24.4825 4.62 26.9825 0.0500031 31.5625C0.0200031 31.5925 0 31.6425 0 31.6825C0 31.7225 0.0200031 31.7625 0.0500031 31.8025C0.120003 31.8625 0.220001 31.8625 0.290001 31.8025C4.87 27.2225 7.37 24.8425 9.77 24.8425C12.17 24.8425 14.67 27.2325 19.25 31.8025C19.28 31.8325 19.32 31.8525 19.37 31.8525C19.46 31.8525 19.54 31.7825 19.54 31.6825C19.54 31.6225 19.51 31.5725 19.46 31.5425C14.9 26.9825 12.52 24.4825 12.52 22.0925C12.52 20.4625 13.63 18.7825 15.77 16.4325C18.48 13.8725 20.33 12.5425 22.12 12.5425C23.76 12.5425 25.46 13.6625 27.83 15.8325C33.8 22.1525 32.75 23.4825 24.67 31.5625C24.64 31.5925 24.62 31.6425 24.62 31.6825C24.62 31.7225 24.64 31.7625 24.67 31.8025C24.7 31.8325 24.74 31.8525 24.79 31.8525C24.84 31.8525 24.88 31.8325 24.91 31.8025C29.49 27.2225 31.98 24.8425 34.39 24.8425C36.8 24.8425 39.29 27.2325 43.87 31.8025C43.9 31.8325 43.94 31.8525 43.99 31.8525C44.1 31.8525 44.16 31.7825 44.16 31.6825C44.16 31.6225 44.13 31.5725 44.08 31.5425L44.06 31.5325Z" fill="#E02C1F"/>
</svg>
