<?xml version="1.0" encoding="UTF-8"?>
<svg id="Livello_1" xmlns="http://www.w3.org/2000/svg" version="1.1" viewBox="0 0 504.5 93.3">
  <!-- Generator: Adobe Illustrator 29.8.2, SVG Export Plug-In . SVG Version: 2.1.1 Build 3)  -->
  <defs>
    <style>
      .st0 {
        fill: #e42f22;
      }

      .st1 {
        fill: #e1251b;
      }
    </style>
  </defs>
  <g>
    <path class="st0" d="M49.6,31.8l-10.2,23.4c-1.3,3-2.6,4.3-4.1,4.9v18.8c0,.7-.5,1.3-1.3,1.3h-6.7c-.7,0-1.3-.6-1.3-1.3v-18.8c-1.5-.6-2.8-2-4.1-4.9l-10.2-23.4c0-.2-.1-.4-.1-.5,0-.5.4-1,1.1-1h7.5c.6,0,1.1.5,1.3,1.1l8.1,20.1c.5,1.1.9,1.3,1.1,1.3s.7-.2,1.2-1.3l8.1-20.1c.2-.5.7-1.1,1.3-1.1h7.4c.7,0,1.1.5,1.1,1s0,.3-.1.5Z"/>
    <path class="st0" d="M64.2,80.8c-10.6,0-16.1-7.1-16.1-16.8v-5.5c0-9.6,5.5-16.8,16.1-16.8s16.1,7.1,16.1,16.8v5.5c0,9.6-5.5,16.8-16.1,16.8ZM71.4,58.5c0-5.5-2.5-9.1-7.2-9.1s-7.2,3.6-7.2,9.1v5.5c0,5.5,2.5,9.1,7.2,9.1s7.2-3.6,7.2-9.1v-5.5Z"/>
    <path class="st0" d="M117.6,80.2h-6.2c-.7,0-1.3-.6-1.3-1.3v-1.5c-3.5,2.3-6.3,3.4-10.6,3.4s-6.3-.9-8.3-2.8c-2.5-2.5-3.4-6.7-3.4-12.2v-21.9c0-.7.6-1.4,1.3-1.4h6.2c.7,0,1.3.7,1.3,1.4v21.9c0,3.4.3,5.3,1.5,6.5.9.8,2.1,1.2,4.2,1.2s5.7-1.7,7.6-2.7v-26.9c0-.7.6-1.4,1.3-1.4h6.2c.7,0,1.3.7,1.3,1.4v35.2c0,.7-.6,1.3-1.3,1.3Z"/>
    <path class="st0" d="M179.7,31.4l-6.3,43.9c-.6,4.2-2.6,5.5-6.1,5.5h-3.6c-3,0-4.6-1.5-5.6-5.4l-5.3-22.2c-.1-.6-.1-.7-.4-.7s-.3.1-.5.7l-5.3,22.2c-.9,3.9-2.6,5.4-5.6,5.4h-3.6c-3.5,0-5.5-1.2-6.1-5.5l-6.3-43.9v-.2c0-.6.5-.9,1.1-.9h7.1c.5,0,1.1.5,1.1,1.2l4.8,40.2c0,.6,0,1,.3,1s.3-.4.4-1l5.8-23.6c.4-1.6,1.3-3,4.2-3h4.6c2.9,0,3.8,1.4,4.2,3l5.8,23.6c.1.6.1,1,.4,1s.3-.4.3-1l4.8-40.2c0-.7.6-1.2,1.1-1.2h7.1c.6,0,1.1.3,1.1.9v.2Z"/>
    <path class="st0" d="M198.9,80.8c-10.6,0-16.1-7.1-16.1-16.8v-5.5c0-9.6,5.5-16.8,16.1-16.8s16.1,7.1,16.1,16.8v5.5c0,9.6-5.5,16.8-16.1,16.8ZM206.1,58.5c0-5.5-2.5-9.1-7.2-9.1s-7.2,3.6-7.2,9.1v5.5c0,5.5,2.5,9.1,7.2,9.1s7.2-3.6,7.2-9.1v-5.5Z"/>
    <path class="st0" d="M240.8,49.3c-3.6,0-6.5.9-9.3,2.4v27.1c0,.7-.6,1.4-1.3,1.4h-6.2c-.7,0-1.3-.7-1.3-1.4v-35.2c0-.7.6-1.3,1.3-1.3h5.9c.7,0,1.3.6,1.3,1.3v1.4c3.3-2.6,6.9-3.2,9.6-3.2s1.3.6,1.3,1.3v4.8c0,.7-.6,1.3-1.3,1.3Z"/>
    <path class="st0" d="M277.4,80.2h-8.2c-.7,0-1.5-.7-2-1.3l-10.6-15.3v15.3c0,.7-.6,1.4-1.3,1.4h-6.2c-.7,0-1.3-.7-1.3-1.4V30.3c0-.7.6-1.3,1.3-1.3h6.2c.7,0,1.3.6,1.3,1.3v28.1l11.5-15.3c.5-.6,1.1-.8,1.5-.8h7.5c.7,0,1,.3,1,.7s0,.4-.3.7l-13.5,16.6,13.7,18.6c.1.2.2.3.2.5,0,.4-.4.8-.9.8Z"/>
    <path class="st0" d="M311.8,64.3h-21.9v.2c0,3.9,1.6,8.5,8.1,8.5s9.6-.4,12.4-.7h.2c.7,0,1.2.3,1.2,1v4.4c0,1.1-.2,1.5-1.4,1.8-4.4.8-7,1.1-13.1,1.1s-16.3-3.6-16.3-16.9v-5c0-10.5,5.9-17.1,16.2-17.1s16,7.1,16,17.1v3.8c0,1.1-.4,1.7-1.3,1.7ZM304.1,57.7c0-5.2-2.9-8.3-7.1-8.3s-7.2,3-7.2,8.3v.3h14.3v-.3Z"/>
    <path class="st0" d="M338.9,49.3c-3.6,0-6.5.9-9.3,2.4v27.1c0,.7-.6,1.4-1.3,1.4h-6.2c-.7,0-1.3-.7-1.3-1.4v-35.2c0-.7.6-1.3,1.3-1.3h5.9c.7,0,1.3.6,1.3,1.3v1.4c3.3-2.6,6.9-3.2,9.6-3.2s1.3.6,1.3,1.3v4.8c0,.7-.6,1.3-1.3,1.3Z"/>
    <path class="st0" d="M351.3,80.2h-6c-.7,0-1.3-.6-1.3-1.3v-7.6c0-.7.6-1.3,1.3-1.3h6c.7,0,1.3.5,1.3,1.3v7.6c0,.7-.6,1.3-1.3,1.3Z"/>
    <path class="st0" d="M388.1,80.2h-5.7c-.7,0-1.3-.6-1.3-1.3v-1.1c-3.1,1.9-6.3,3-9.5,3-5.6,0-11.6-2.2-11.6-11.2v-.3c0-7.7,4.7-11.6,16.4-11.6h4.2v-3c0-4.4-2-5.5-5.9-5.5s-8.7.3-11,.5h-.3c-.7,0-1.2-.2-1.2-1.1v-4.3c0-.7.4-1.2,1.3-1.4,2.7-.5,6.6-1.1,11.2-1.1,9.6,0,14.8,4.2,14.8,12.9v24.2c0,.7-.6,1.3-1.3,1.3ZM380.6,63.5h-4.2c-6.1,0-7.5,2-7.5,5.7v.3c0,3.3,1.5,4.2,4.8,4.2s4.9-.8,6.9-1.9v-8.3Z"/>
    <path class="st0" d="M406.2,37.2h-6.5c-.7,0-1.4-.6-1.4-1.3v-5.9c0-.7.7-1.3,1.4-1.3h6.5c.7,0,1.3.6,1.3,1.3v5.9c0,.7-.6,1.3-1.3,1.3ZM406,80.2h-6.2c-.7,0-1.3-.7-1.3-1.4v-35.2c0-.7.6-1.3,1.3-1.3h6.2c.7,0,1.3.6,1.3,1.3v35.2c0,.7-.6,1.4-1.3,1.4Z"/>
  </g>
  <path class="st0" d="M496.9,23.8c-.1-.1-.3-.2-.4-.2-11,0-11.1-.1-11.1-11.1,0-.2,0-.3-.2-.4s-.3-.2-.4-.2c-.3,0-.6.3-.6.6,0,5.4,0,8.3-1.4,9.7s-4.2,1.4-9.7,1.4c-.3,0-.6.3-.6.6s0,.3.2.4c.1.1.3.2.5.2,5.4,0,8.3,0,9.6,1.4,1.3,1.3,1.4,4.2,1.4,9.7,0,.2,0,.3.2.4.1.1.3.2.4.2s.3,0,.4-.2c.1-.1.2-.3.2-.4,0-5.4,0-8.3,1.4-9.7,1.3-1.3,4.2-1.4,9.7-1.4.3,0,.6-.3.6-.6s0-.3-.2-.4Z"/>
  <path class="st0" d="M477.3,12.6c0,0-.1,0-.2,0-6,0-6.1,0-6.1-6.1,0,0,0-.2,0-.2s-.1,0-.2,0c-.2,0-.3.1-.3.3,0,3,0,4.6-.8,5.3s-2.3.8-5.3.8c-.2,0-.3.1-.3.3s0,.2,0,.2c0,0,.2,0,.3,0,3,0,4.5,0,5.3.8.7.7.8,2.3.8,5.3,0,0,0,.2,0,.2,0,0,.1,0,.2,0s.2,0,.2,0c0,0,0-.1,0-.2,0-3,0-4.6.8-5.3.7-.7,2.3-.8,5.3-.8.2,0,.3-.1.3-.3s0-.2,0-.2Z"/>
  <g>
    <path class="st1" d="M472.5,41.7h-3v-2.8c0-9.7-7.9-17.6-17.6-17.6s-17.5,7.9-17.5,17.6v2.8h-3c-1.5,0-2.7,1.2-2.7,2.7v25.6c0,5.7,4.6,10.3,10.3,10.3h26.3c5.4,0,9.8-4.4,9.8-9.8v-26.2c0-1.5-1.2-2.7-2.7-2.7ZM439.9,41.7v-2.8c0-6.7,5.4-12.2,12.1-12.2s12.2,5.5,12.2,12.2v2.8h-24.3ZM469.8,47.1v23.5c0,2.4-2,4.4-4.4,4.4h-26.3c-2.7,0-4.9-2.2-4.9-4.9v-22.9h35.7Z"/>
    <path class="st1" d="M452,69.3c4.6,0,8.4-3.7,8.4-8.4s-3.7-8.4-8.4-8.4-8.4,3.7-8.4,8.4,3.7,8.4,8.4,8.4ZM449,61c0-1.6,1.3-3,3-3s3,1.3,3,3-1.3,3-3,3-3-1.3-3-3Z"/>
  </g>
</svg>