<?xml version="1.0" encoding="UTF-8"?>
<svg id="Livello_1" xmlns="http://www.w3.org/2000/svg" version="1.1" viewBox="0 0 400 400">
  <!-- Generator: Adobe Illustrator 29.8.2, SVG Export Plug-In . SVG Version: 2.1.1 Build 3)  -->
  <defs>
    <style>
      .st0 {
        fill: #e42f22;
      }

      .st1 {
        fill: #e1251b;
      }
    </style>
  </defs>
  <path class="st0" d="M375.4,99.9c-.6-.6-1.4-.9-2.2-.9-56.6,0-57.1-.5-57.1-57.1,0-.8-.3-1.6-.9-2.2-.6-.6-1.4-.9-2.2-.9-1.7,0-3.1,1.4-3.1,3.1,0,28.1-.3,43-7.2,49.9-6.9,6.9-21.8,7.2-49.9,7.2-1.7,0-3.1,1.4-3.1,3.1s.3,1.6.9,2.2c.6.6,1.5.9,2.4.9,27.9,0,42.9.3,49.7,7.2,6.9,6.9,7.2,21.8,7.2,49.9,0,.8.3,1.6.9,2.2.6.6,1.4.9,2.2.9s1.6-.3,2.2-.9c.6-.6.9-1.4.9-2.2,0-28.1.3-43,7.2-49.9,6.9-6.9,21.8-7.2,49.9-7.2,1.7,0,3.1-1.4,3.1-3.1s-.3-1.6-.9-2.2Z"/>
  <path class="st0" d="M274.2,41.8c-.3-.3-.7-.5-1.2-.5-31,0-31.3-.3-31.3-31.3,0-.5-.2-.9-.5-1.2s-.7-.5-1.2-.5c-.9,0-1.7.8-1.7,1.7,0,15.4-.2,23.6-3.9,27.3-3.8,3.8-12,3.9-27.3,3.9-.9,0-1.7.8-1.7,1.7s.2.9.5,1.2c.3.3.8.5,1.3.5,15.3,0,23.5.2,27.2,3.9,3.8,3.8,3.9,12,3.9,27.3,0,.4.2.9.5,1.2.3.3.7.5,1.2.5s.9-.2,1.2-.5c.3-.3.5-.7.5-1.2,0-15.4.2-23.6,3.9-27.3,3.8-3.8,11.9-4,27.3-3.9.9,0,1.7-.8,1.7-1.7s-.2-.9-.5-1.2Z"/>
  <g>
    <path class="st1" d="M249.7,192.1h-15.4v-14.2c0-50-40.7-90.7-90.7-90.7s-90.6,40.7-90.6,90.7v14.2h-15.5c-7.7,0-13.9,6.3-13.9,13.9v132.2c0,29.4,23.9,53.4,53.4,53.4h136.1c27.8,0,50.5-22.7,50.5-50.5v-135.1c0-7.7-6.2-13.9-13.9-13.9ZM81,192.1v-14.2c0-34.6,28.1-62.8,62.7-62.8s62.8,28.2,62.8,62.8v14.2h-125.5ZM235.8,220v121.1c0,12.5-10.2,22.6-22.6,22.6H77.1c-14.1,0-25.5-11.4-25.5-25.5v-118.2h184.2Z"/>
    <path class="st1" d="M143.7,335c23.8,0,43.1-19.4,43.1-43.1s-19.4-43.1-43.1-43.1-43.1,19.3-43.1,43.1,19.4,43.1,43.1,43.1ZM128.4,291.8c0-8.4,6.8-15.2,15.3-15.2s15.3,6.8,15.3,15.2-6.8,15.3-15.3,15.3-15.3-6.9-15.3-15.3Z"/>
  </g>
</svg>